<svg id="Layer_1" data-name="Layer 1" xmlns="http://www.w3.org/2000/svg" viewBox="0 0 475.9 136.34"><defs><style>.cls-1{fill:#4491ce;}.cls-2{fill:#2fb997;}</style></defs><title>SVG conversion</title><path class="cls-1" d="M220.89,89.78V41.57h10V60h18.75V41.57h10V89.78h-10V68.26H230.9V89.78Z"/><path class="cls-1" d="M267,96.62l1.17.07a15,15,0,0,0,2.62-.1,4.69,4.69,0,0,0,2.09-.75,5,5,0,0,0,1.53-2.33,5.57,5.57,0,0,0,.6-2.16l-13.1-37.22h10.37l7.78,26.3,7.37-26.3h9.91L285.11,89.2q-3.54,10.14-5.6,12.57t-8.26,2.44c-.83,0-1.49,0-2,0s-1.26,0-2.26-.11Z"/><path class="cls-1" d="M315,54.09a10.93,10.93,0,0,1,5.25,5.17V54.13h8.69V88a22.89,22.89,0,0,1-1.37,8.74,11.4,11.4,0,0,1-5.61,5.81,13.88,13.88,0,0,1-1.75.7,25.16,25.16,0,0,1-8.6,1.29,18,18,0,0,1-10-3c-.27-.2-2.87-2.51-2.84-2.54l4.39-5.1c.17-.12,2.14,1.54,2.39,1.71,3.73,2.6,11.05,3.33,13.47-1.59q1.07-2.16,1.06-7.26V84.39a11.19,11.19,0,0,1-2.75,3.43A10.7,10.7,0,0,1,310.43,90a12.84,12.84,0,0,1-10.49-4.83Q296,80.3,296,72.05a22.76,22.76,0,0,1,3.78-13.36,12.29,12.29,0,0,1,10.71-5.41A11.31,11.31,0,0,1,315,54.09Zm3,25.57q2.14-2.47,2.15-7.87,0-5.07-2-7.72a6.56,6.56,0,0,0-5.47-2.65q-4.66,0-6.44,4.62a17.12,17.12,0,0,0-.94,6,14.54,14.54,0,0,0,1,5.53,6.49,6.49,0,0,0,6.48,4.51A6.71,6.71,0,0,0,318,79.66Z"/><path class="cls-1" d="M334.45,54.13h8.71V89.78h-8.71Z"/><path class="cls-1" d="M372.18,54.85a14,14,0,0,1,5.89,5.27,17.91,17.91,0,0,1,2.71,7.38,47.85,47.85,0,0,1,.3,7.07H356.27c.14,3.58,1.32,6.09,3.56,7.53,3.65,2.35,8.24,1.43,11.05-.25a10.14,10.14,0,0,0,2.89-2.55l4.86,4.85s-.83,1.09-1.32,1.64Q372.74,91,364.49,91a18.06,18.06,0,0,1-12-4.39q-5.21-4.39-5.2-14.28,0-9.26,4.69-14.21a16.06,16.06,0,0,1,12.18-4.94A18.66,18.66,0,0,1,372.18,54.85Zm-13.32,8a9.88,9.88,0,0,0-2.37,5.52h15.34a7.93,7.93,0,0,0-2.37-5.63,7.59,7.59,0,0,0-5.28-1.92A6.92,6.92,0,0,0,358.86,62.9Z"/><path class="cls-1" d="M442.31,54.85a13.84,13.84,0,0,1,5.79,5.27,18.3,18.3,0,0,1,2.67,7.38,49.59,49.59,0,0,1,.29,7.07h-24.4q.21,5.37,3.5,7.53c3.59,2.35,8.11,1.43,10.87-.25a10.07,10.07,0,0,0,2.84-2.55l4.78,4.85s-.81,1.09-1.3,1.64q-4.5,5.2-12.6,5.21A17.61,17.61,0,0,1,423,86.61q-5.1-4.39-5.11-14.28,0-9.26,4.62-14.21a15.64,15.64,0,0,1,12-4.94A18.11,18.11,0,0,1,442.31,54.85Zm-13.1,8a10,10,0,0,0-2.33,5.52H442a8,8,0,0,0-2.34-5.63,7.39,7.39,0,0,0-5.19-1.92A6.74,6.74,0,0,0,429.21,62.9Z"/><path class="cls-1" d="M412.31,56.17q3.49,2.89,3.5,9.6v24h-9.56V68.1a9.93,9.93,0,0,0-.74-4.32Q404.15,61,400.31,61a6.44,6.44,0,0,0-6.46,4,13.86,13.86,0,0,0-.91,5.43v19.3h-9.32V54.19h9v5.2a15.64,15.64,0,0,1,3.38-4,11.75,11.75,0,0,1,7.27-2.16A13.68,13.68,0,0,1,412.31,56.17Z"/><circle class="cls-2" cx="338.7" cy="45.43" r="5.47"/><path class="cls-1" d="M119,46.7a13.47,13.47,0,0,1,2,7.36,11.74,11.74,0,0,1-2,7.1,10.39,10.39,0,0,1-3.24,2.75,9.69,9.69,0,0,1,4.91,4.25,14.14,14.14,0,0,1,1.65,7.07,15.53,15.53,0,0,1-1.89,7.68,12.76,12.76,0,0,1-3,3.8,11,11,0,0,1-4.8,2.42,25.79,25.79,0,0,1-6,.65H87.41V41.57h20.53C113.12,41.65,116.79,43.37,119,46.7ZM95.88,49.94V60.57h10.33a7.78,7.78,0,0,0,4.49-1.19c1.15-.8,1.73-2.21,1.73-4.24,0-2.24-.77-3.73-2.29-4.45a14.24,14.24,0,0,0-5-.75Zm0,18.61V81.41H106.2a9,9,0,0,0,4.3-.85c1.86-1,2.79-3,2.79-6q0-3.77-2.71-5.17a9.74,9.74,0,0,0-4.24-.82Z"/><path class="cls-1" d="M129.9,80.46q1.93-4.74,9.18-10a68.94,68.94,0,0,0,8.14-6.61,9.89,9.89,0,0,0,2.83-6.8,7.69,7.69,0,0,0-1.62-5,5.67,5.67,0,0,0-4.66-2c-2.76,0-4.64,1.05-5.64,3.17a15.81,15.81,0,0,0-1,5.82h-8.84a23.38,23.38,0,0,1,2.14-9.78q3.65-7.09,12.93-7.1,7.35,0,11.69,4.17a14.62,14.62,0,0,1,4.34,11,15.15,15.15,0,0,1-3.07,9.36,30.81,30.81,0,0,1-6.61,6L146,75.39q-3.42,2.49-4.68,3.6a10.59,10.59,0,0,0-2.12,2.58h20.19v8.21H127.76A22.81,22.81,0,0,1,129.9,80.46Z"/><path class="cls-1" d="M197.6,46.7a13.39,13.39,0,0,1,2,7.36,11.67,11.67,0,0,1-2,7.1,10.53,10.53,0,0,1-3.27,2.75,9.74,9.74,0,0,1,4.95,4.25,14,14,0,0,1,1.67,7.07A15.43,15.43,0,0,1,199,82.91a13,13,0,0,1-3,3.8,11.28,11.28,0,0,1-4.85,2.42,26.23,26.23,0,0,1-6,.65H165.78V41.57h20.71C191.71,41.65,195.42,43.37,197.6,46.7Zm-23.27,3.24V60.57h10.41a7.9,7.9,0,0,0,4.53-1.19c1.16-.8,1.74-2.21,1.74-4.24,0-2.24-.76-3.73-2.3-4.45a14.48,14.48,0,0,0-5.06-.75Zm0,18.61V81.41h10.4a9.08,9.08,0,0,0,4.34-.85c1.88-1,2.82-3,2.82-6q0-3.77-2.73-5.17a10,10,0,0,0-4.29-.82Z"/><path class="cls-2" d="M55.78,25.68A90.52,90.52,0,0,0,33,52.54C28.8,60,26.34,68.67,29.54,77c1.61,4.2,5.05,8,9.58,8.94a11.78,11.78,0,0,0,12.06-4.48A11.47,11.47,0,0,0,51,68.57c-4.43-6.78-7.92-14.38-6.91-22.73A30.11,30.11,0,0,1,55.78,25.68Z"/><path class="cls-1" d="M58.6,27.05c-2.38,4.32-4.5,9.19-4.61,14.21-.09,4.28,2,7.73,5,10.61a68.36,68.36,0,0,1,9.88,11.28c4.78,7.32,6.4,16.23,1.92,24.07-7.08,12.39-24.2,18.1-36.86,10.94A23.11,23.11,0,0,1,27,92.25c-5.13-6.75-4.61-14.44-4.37-16.67-.36,3.35,1.72,7.68,3.53,10.31a18.66,18.66,0,0,0,11.5,8,16.5,16.5,0,0,0,15.44-5.48c5-5.55,6.21-14.86,3-21.55-2.06-4.24-5.5-7.31-6.87-12C46.27,45,51.27,33.81,58.6,27.05Z"/></svg>