<svg id="Layer_1" data-name="Layer 1" xmlns="http://www.w3.org/2000/svg" viewBox="0 0 862.47 64.34"><defs><style>.cls-1{fill:#bfb691;}</style></defs><title>SVG conversion</title><polygon class="cls-1" points="16.16 45.71 31.87 45.71 31.87 41.34 21.34 41.34 21.34 33.77 30.7 33.77 30.7 29.41 21.34 29.41 21.34 22.19 31.87 22.19 31.87 17.82 16.16 17.82 16.16 45.71"/><path class="cls-1" d="M66.39,31.37a8.55,8.55,0,0,0,1.6-5,8.34,8.34,0,0,0-1.12-4.28A8,8,0,0,0,63.48,19,12.06,12.06,0,0,0,58,17.86H48.3V45.71h5.18V34.86H56.3l6.24,10.85H68.7L61.91,34.34A8,8,0,0,0,66.39,31.37ZM53.48,22.23H58a5,5,0,0,1,3.53,1.08,4,4,0,0,1,1.13,3,4.15,4.15,0,0,1-1.15,3.1A4.87,4.87,0,0,1,58,30.58H53.48Z"/><rect class="cls-1" x="84.65" y="17.86" width="5.18" height="27.85"/><path class="cls-1" d="M115.19,23.31a7.57,7.57,0,0,1,4.14-1.16,7,7,0,0,1,3.73,1,6.66,6.66,0,0,1,2.48,3l.1.21h5.48l-.18-.5a12.33,12.33,0,0,0-4.52-6.21,12.42,12.42,0,0,0-13.5-.36,13,13,0,0,0-4.63,5.07,15.48,15.48,0,0,0-1.71,7.33,15.47,15.47,0,0,0,1.71,7.32,13,13,0,0,0,4.62,5.07,11.9,11.9,0,0,0,6.42,1.82,11.9,11.9,0,0,0,11.61-8.35l.18-.5h-5.48l-.1.21a6.61,6.61,0,0,1-2.48,3,7,7,0,0,1-3.73,1,7.5,7.5,0,0,1-4.14-1.17,8,8,0,0,1-2.83-3.35,11.92,11.92,0,0,1-1-5.09,11.93,11.93,0,0,1,1-5.1A7.79,7.79,0,0,1,115.19,23.31Z"/><polygon class="cls-1" points="180.02 38.59 170.74 17.86 165.33 17.86 165.33 45.71 170.52 45.71 170.52 28.5 178.22 45.71 181.78 45.71 189.44 28.51 189.44 45.71 194.62 45.71 194.62 17.86 189.26 17.86 180.02 38.59"/><path class="cls-1" d="M225.33,17.82h-5.67l-10,27.89h5.42l1.95-5.54h10.83l2,5.54h5.47l-9.89-27.64Zm1,18h-7.81l3.92-11.11Z"/><rect class="cls-1" x="249.64" y="17.86" width="5.18" height="27.85"/><path class="cls-1" d="M289.85,31.37a8.7,8.7,0,0,0,.49-9.31A8,8,0,0,0,287,19a12.09,12.09,0,0,0-5.45-1.13h-9.74V45.71H277V34.86h2.81L286,45.71h6.17l-6.79-11.37A8,8,0,0,0,289.85,31.37ZM277,22.23h4.55A5,5,0,0,1,285,23.31a3.94,3.94,0,0,1,1.14,3,4.12,4.12,0,0,1-1.16,3.1,4.86,4.86,0,0,1-3.5,1.14H277Z"/><polygon class="cls-1" points="308.43 45.71 325.88 45.71 325.88 41.34 313.62 41.34 313.62 33.77 324.62 33.77 324.62 29.41 313.62 29.41 313.62 22.19 325.88 22.19 325.88 17.82 308.43 17.82 308.43 45.71"/><polygon class="cls-1" points="363.3 45.71 379.01 45.71 379.01 41.34 368.48 41.34 368.48 33.77 377.84 33.77 377.84 29.41 368.48 29.41 368.48 22.19 379.01 22.19 379.01 17.82 363.3 17.82 363.3 45.71"/><path class="cls-1" d="M412,30.92a33.83,33.83,0,0,0-4.44-1.5,30.52,30.52,0,0,1-3.16-1,5.13,5.13,0,0,1-1.8-1.18,2.48,2.48,0,0,1-.65-1.79A3,3,0,0,1,403,22.92,4.47,4.47,0,0,1,405.9,22a4.89,4.89,0,0,1,3.16,1,3.2,3.2,0,0,1,1.27,2.28l0,.34H416l0-.4a7.66,7.66,0,0,0-2.93-5.66,10.58,10.58,0,0,0-6.69-2,12.35,12.35,0,0,0-5,1,7.86,7.86,0,0,0-3.43,2.82,7.59,7.59,0,0,0-1.24,4.3,6.83,6.83,0,0,0,1.25,4.28,7.57,7.57,0,0,0,3,2.36,31.44,31.44,0,0,0,4.37,1.44,31,31,0,0,1,3.25,1,5.06,5.06,0,0,1,1.86,1.24,2.75,2.75,0,0,1,.7,2,3.24,3.24,0,0,1-1.16,2.59,5,5,0,0,1-3.35,1,4.59,4.59,0,0,1-3.2-1,3.93,3.93,0,0,1-1.27-2.65l0-.34h-5.47v.37a7.31,7.31,0,0,0,1.32,4.31A8.42,8.42,0,0,0,401.5,45a12.45,12.45,0,0,0,5.06,1,11.12,11.12,0,0,0,5.18-1.15,8.53,8.53,0,0,0,3.39-3.08,7.85,7.85,0,0,0,1.16-4.09A6.91,6.91,0,0,0,415,33.32,7.57,7.57,0,0,0,412,30.92Z"/><polygon class="cls-1" points="430.6 22.23 437.86 22.23 437.86 45.71 443.04 45.71 443.04 22.23 450.26 22.23 450.26 17.86 430.6 17.86 430.6 22.23"/><path class="cls-1" d="M478.76,17.82h-5.67l-10,27.89h5.43l1.95-5.54h10.83l1.95,5.54h5.47l-9.89-27.64Zm1.05,18H472l3.92-11.11Z"/><path class="cls-1" d="M521.51,33.49a6.63,6.63,0,0,0-2.87-2.15,7.3,7.3,0,0,0,2.51-2,6.38,6.38,0,0,0,1.33-4.13,6.82,6.82,0,0,0-1.07-3.73,7.32,7.32,0,0,0-3.16-2.65,11.53,11.53,0,0,0-4.91-1H502.63V45.71h11.22a11.29,11.29,0,0,0,4.87-1A7.72,7.72,0,0,0,522,42a7.33,7.33,0,0,0-.47-8.48Zm-5.38-5.15a5,5,0,0,1-3.18.91h-5.13v-7H513a4.78,4.78,0,0,1,3.17.94,3.17,3.17,0,0,1,1.1,2.59A3.12,3.12,0,0,1,516.13,28.34Zm-8.31,5.28h5.48a5.05,5.05,0,0,1,3.39,1.08,3.56,3.56,0,0,1,1.23,2.88,3.41,3.41,0,0,1-1.15,2.76,5,5,0,0,1-3.31,1h-5.64Z"/><polygon class="cls-1" points="543.06 17.86 537.88 17.86 537.88 45.71 555.33 45.71 555.33 41.38 543.06 41.38 543.06 17.86"/><rect class="cls-1" x="572.29" y="17.86" width="5.18" height="27.85"/><path class="cls-1" d="M609.34,30.92a33.83,33.83,0,0,0-4.44-1.5,29.75,29.75,0,0,1-3.16-1,5.13,5.13,0,0,1-1.8-1.18,2.49,2.49,0,0,1-.66-1.79,3,3,0,0,1,1.07-2.53,4.51,4.51,0,0,1,2.89-.89,4.87,4.87,0,0,1,3.16,1,3.21,3.21,0,0,1,1.28,2.28l0,.34h5.66l0-.4a7.65,7.65,0,0,0-2.92-5.66,10.58,10.58,0,0,0-6.69-2,12.32,12.32,0,0,0-5,1,7.89,7.89,0,0,0-3.44,2.82A7.66,7.66,0,0,0,594,25.6a6.83,6.83,0,0,0,1.25,4.28,7.43,7.43,0,0,0,3,2.36,31.44,31.44,0,0,0,4.37,1.44,31.83,31.83,0,0,1,3.25,1,4.94,4.94,0,0,1,1.85,1.24,2.7,2.7,0,0,1,.7,2,3.21,3.21,0,0,1-1.16,2.59,5,5,0,0,1-3.34,1,4.59,4.59,0,0,1-3.2-1,3.89,3.89,0,0,1-1.27-2.65l0-.34h-5.47v.37a7.31,7.31,0,0,0,1.32,4.31A8.45,8.45,0,0,0,598.84,45a12.5,12.5,0,0,0,5.07,1,11.15,11.15,0,0,0,5.18-1.15,8.44,8.44,0,0,0,3.38-3.08,7.77,7.77,0,0,0,1.17-4.09,6.91,6.91,0,0,0-1.27-4.34A7.71,7.71,0,0,0,609.34,30.92Z"/><polygon class="cls-1" points="646.7 29.49 634.68 29.49 634.68 17.86 629.49 17.86 629.49 45.71 634.68 45.71 634.68 33.85 646.7 33.85 646.7 45.71 651.88 45.71 651.88 17.86 646.7 17.86 646.7 29.49"/><polygon class="cls-1" points="683.38 38.59 674.1 17.86 668.69 17.86 668.69 45.71 673.88 45.71 673.88 28.5 681.58 45.71 685.14 45.71 692.8 28.51 692.8 45.71 697.99 45.71 697.99 17.86 692.62 17.86 683.38 38.59"/><polygon class="cls-1" points="713.86 45.71 731.26 45.71 731.26 41.34 719.04 41.34 719.04 33.77 728.4 33.77 728.4 29.41 719.04 29.41 719.04 22.19 731.26 22.19 731.26 17.82 713.86 17.82 713.86 45.71"/><polygon class="cls-1" points="764.14 37.17 751.33 17.82 746.31 17.82 746.31 45.71 751.5 45.71 751.5 26.32 764.31 45.71 769.33 45.71 769.33 17.82 764.14 17.82 764.14 37.17"/><polygon class="cls-1" points="784.42 22.23 791.68 22.23 791.68 45.71 796.86 45.71 796.86 22.23 804.08 22.23 804.08 17.86 784.42 17.86 784.42 22.23"/><path class="cls-1" d="M839,33.32a7.71,7.71,0,0,0-3-2.4,34.35,34.35,0,0,0-4.44-1.5,29.75,29.75,0,0,1-3.16-1,5,5,0,0,1-1.8-1.18,2.49,2.49,0,0,1-.66-1.79A3,3,0,0,1,827,22.92a4.51,4.51,0,0,1,2.89-.89A4.87,4.87,0,0,1,833,23a3.16,3.16,0,0,1,1.27,2.28l0,.34H840l0-.4A7.63,7.63,0,0,0,837,19.56a10.54,10.54,0,0,0-6.68-2,12.4,12.4,0,0,0-5,1,7.92,7.92,0,0,0-3.43,2.82,7.59,7.59,0,0,0-1.23,4.3,6.89,6.89,0,0,0,1.24,4.28,7.53,7.53,0,0,0,3,2.36,31.7,31.7,0,0,0,4.36,1.44,31.36,31.36,0,0,1,3.26,1,5,5,0,0,1,1.85,1.24,2.75,2.75,0,0,1,.7,2,3.24,3.24,0,0,1-1.16,2.59,5,5,0,0,1-3.34,1,4.62,4.62,0,0,1-3.21-1,4,4,0,0,1-1.27-2.65l0-.34h-5.47v.37a7.24,7.24,0,0,0,1.32,4.31A8.39,8.39,0,0,0,825.46,45a12.5,12.5,0,0,0,5.07,1,11.15,11.15,0,0,0,5.18-1.15,8.44,8.44,0,0,0,3.38-3.08,7.86,7.86,0,0,0,1.17-4.09A6.91,6.91,0,0,0,839,33.32Z"/></svg>