<svg id="Layer_1" data-name="Layer 1" xmlns="http://www.w3.org/2000/svg" viewBox="0 0 288 181.35"><defs><style>.cls-1{fill:#231f20;}.cls-2{fill:#fff;}.cls-3{fill:#3777bb;}</style></defs><title>SVG conversion</title><rect class="cls-1" width="288" height="181.35"/><path class="cls-2" d="M53.8,98.29a3.67,3.67,0,0,1,.77-1.15,2.64,2.64,0,0,1,2-.59h2.58a1.55,1.55,0,0,1,1.54,1.53,1.9,1.9,0,0,1-.14.7L45.42,142.66a4.32,4.32,0,0,1-1.36,2,3.56,3.56,0,0,1-2.35.77H38.92a3.43,3.43,0,0,1-2.31-.77,4.41,4.41,0,0,1-1.32-2L20.13,98.78a1.72,1.72,0,0,1-.14-.7A1.51,1.51,0,0,1,20.44,97a1.49,1.49,0,0,1,1.08-.45h2.59a2.67,2.67,0,0,1,2,.59,3.62,3.62,0,0,1,.76,1.15l13.49,40.18Z"/><path class="cls-2" d="M62.81,123.79a18.42,18.42,0,0,1,1.54-6,16.85,16.85,0,0,1,3.28-4.89,14.36,14.36,0,0,1,4.86-3.29,16.22,16.22,0,0,1,6.32-1.19,17.46,17.46,0,0,1,6.74,1.23,13.94,13.94,0,0,1,5.07,3.52,15.7,15.7,0,0,1,3.21,5.59A22.57,22.57,0,0,1,95,126.1V128a1.81,1.81,0,0,1-.56,1.32,1.78,1.78,0,0,1-1.33.56H69v.42a9.85,9.85,0,0,0,2.9,7.3,9.75,9.75,0,0,0,6.88,2.55,10.41,10.41,0,0,0,8.87-3.49,4.29,4.29,0,0,1,1-.77,2.92,2.92,0,0,1,1.26-.21H92a2.06,2.06,0,0,1,1.39.56,1.35,1.35,0,0,1,.49,1.33,7.29,7.29,0,0,1-1.19,2.76,10.4,10.4,0,0,1-2.82,2.79,17.11,17.11,0,0,1-4.62,2.17,21.53,21.53,0,0,1-6.46.87,15.65,15.65,0,0,1-6.29-1.22,15,15,0,0,1-4.85-3.36,16.56,16.56,0,0,1-3.32-5,19.87,19.87,0,0,1-1.54-6.32A30,30,0,0,1,62.81,123.79ZM69,124H88.66v-.21A8.92,8.92,0,0,0,86,117a10,10,0,0,0-7.16-2.55,10.35,10.35,0,0,0-3.77.67A9.34,9.34,0,0,0,72,117a8.8,8.8,0,0,0-2.1,3,10.46,10.46,0,0,0-.84,3.84Z"/><path class="cls-2" d="M109.76,143.57a1.81,1.81,0,0,1-.56,1.32,1.78,1.78,0,0,1-1.33.56h-2.58a1.91,1.91,0,0,1-1.89-1.88V97.74a1.91,1.91,0,0,1,1.89-1.89h2.58a1.91,1.91,0,0,1,1.89,1.89Z"/><path class="cls-2" d="M135.12,108.42a18.22,18.22,0,0,1,6.71,1.16,15.2,15.2,0,0,1,5,3.18,14.88,14.88,0,0,1,3.32,4.92,20.68,20.68,0,0,1,1.5,6.32c0,.42.07.92.07,1.51v3.63a13.45,13.45,0,0,1-.07,1.43,22.63,22.63,0,0,1-1.54,6.36,14.41,14.41,0,0,1-3.28,4.89,15.2,15.2,0,0,1-5,3.18,20.15,20.15,0,0,1-13.42,0,15.2,15.2,0,0,1-5-3.18,14.78,14.78,0,0,1-3.31-4.89,20.18,20.18,0,0,1-1.51-6.36c0-.37-.08-.85-.1-1.43s0-1.19,0-1.82,0-1.23,0-1.81.06-1.09.1-1.51a20.4,20.4,0,0,1,1.51-6.32,14.71,14.71,0,0,1,3.31-4.92,15.2,15.2,0,0,1,5-3.18A18.26,18.26,0,0,1,135.12,108.42Zm10.2,21.8a26.13,26.13,0,0,0,.14-2.9,28.19,28.19,0,0,0-.14-3,14.89,14.89,0,0,0-.91-3.91,9.41,9.41,0,0,0-1.95-3.14,9,9,0,0,0-3.08-2.1,12.17,12.17,0,0,0-8.52,0,8.83,8.83,0,0,0-3.07,2.1,9.28,9.28,0,0,0-2,3.14,14.89,14.89,0,0,0-.91,3.91,28.19,28.19,0,0,0-.14,3,26.13,26.13,0,0,0,.14,2.9,14.8,14.8,0,0,0,.91,3.91,9.32,9.32,0,0,0,2,3.15,8.94,8.94,0,0,0,3.07,2.09,12.17,12.17,0,0,0,8.52,0,9.08,9.08,0,0,0,3.08-2.09,9.46,9.46,0,0,0,1.95-3.15A14.8,14.8,0,0,0,145.32,130.22Z"/><path class="cls-2" d="M165.23,129.73a14.4,14.4,0,0,0,1.22,4.75,10.52,10.52,0,0,0,2.31,3.22,8.79,8.79,0,0,0,3,1.85,10.34,10.34,0,0,0,3.42.59,12.06,12.06,0,0,0,5.73-1.26,8.4,8.4,0,0,0,3.7-4.19,3.79,3.79,0,0,1,1-1.5,2.16,2.16,0,0,1,1.29-.38h2.09a1.91,1.91,0,0,1,1.37.56,1.54,1.54,0,0,1,.52,1.32,9.16,9.16,0,0,1-1.08,3.67,12.25,12.25,0,0,1-3,3.7A17.29,17.29,0,0,1,182,145a17.71,17.71,0,0,1-6.74,1.19,17.3,17.3,0,0,1-6.81-1.26,14.85,14.85,0,0,1-5-3.42,15.41,15.41,0,0,1-3.21-5.1,19.42,19.42,0,0,1-1.3-6.29c0-.74-.08-1.66-.1-2.76a24.45,24.45,0,0,1,1.54-9.11,15.64,15.64,0,0,1,3.17-5.1,14.57,14.57,0,0,1,5-3.43,17,17,0,0,1,6.77-1.26,17.71,17.71,0,0,1,6.74,1.19,17.53,17.53,0,0,1,4.89,2.9,12.37,12.37,0,0,1,3,3.7,9.16,9.16,0,0,1,1.08,3.67,1.56,1.56,0,0,1-.52,1.33,2,2,0,0,1-1.37.56H187a2.1,2.1,0,0,1-1.29-.39,3.64,3.64,0,0,1-1-1.5,8.49,8.49,0,0,0-3.7-4.19,12.06,12.06,0,0,0-5.73-1.26,10.41,10.41,0,0,0-3.46.6,8.59,8.59,0,0,0-3.07,1.85,10.59,10.59,0,0,0-2.31,3.21,13.42,13.42,0,0,0-1.15,4.75A28.49,28.49,0,0,0,165.23,129.73Z"/><path class="cls-2" d="M206.38,101.72a1.81,1.81,0,0,1-.56,1.32,1.78,1.78,0,0,1-1.33.56h-4a1.9,1.9,0,0,1-1.88-1.88v-4a1.8,1.8,0,0,1,.55-1.33,1.85,1.85,0,0,1,1.33-.56h4a1.91,1.91,0,0,1,1.89,1.89Zm-.7,41.85a1.91,1.91,0,0,1-1.88,1.88h-2.59a1.91,1.91,0,0,1-1.89-1.88V111a1.91,1.91,0,0,1,1.89-1.89h2.59a1.91,1.91,0,0,1,1.88,1.89Z"/><path class="cls-2" d="M225.66,133.23a11.52,11.52,0,0,0,.25,2.48,5,5,0,0,0,.87,2,3.94,3.94,0,0,0,1.78,1.29,8.29,8.29,0,0,0,3,.45h3.7a1.81,1.81,0,0,1,1.33.56,1.85,1.85,0,0,1,.56,1.33v2.24a1.81,1.81,0,0,1-.56,1.32,1.78,1.78,0,0,1-1.33.56h-4.4q-6.08,0-8.8-3.14c-1.82-2.1-2.73-5.12-2.73-9.08v-18.1h-5.16a1.91,1.91,0,0,1-1.89-1.89V111a1.91,1.91,0,0,1,1.89-1.89h5.16V97.74a1.81,1.81,0,0,1,.56-1.33,1.85,1.85,0,0,1,1.33-.56h2.59a1.81,1.81,0,0,1,1.32.56,1.78,1.78,0,0,1,.56,1.33v11.38h8.88a1.81,1.81,0,0,1,1.32.56,1.85,1.85,0,0,1,.56,1.33v2.23a1.81,1.81,0,0,1-.56,1.33,1.77,1.77,0,0,1-1.32.56h-8.88Z"/><path class="cls-2" d="M254.79,157.05a3.7,3.7,0,0,1-.69,1.12,1.69,1.69,0,0,1-1.33.56H249.9a1.67,1.67,0,0,1-1.67-1.68,1.45,1.45,0,0,1,.07-.49L255,142l-13.83-30.67a1.45,1.45,0,0,1-.07-.49,1.61,1.61,0,0,1,.49-1.19,1.65,1.65,0,0,1,1.19-.49h2.86a1.69,1.69,0,0,1,1.33.56,3.75,3.75,0,0,1,.7,1.12l10.76,23.75,10.9-23.75a3.75,3.75,0,0,1,.7-1.12,1.66,1.66,0,0,1,1.32-.56h2.87a1.62,1.62,0,0,1,1.18.49,1.61,1.61,0,0,1,.49,1.19,1.45,1.45,0,0,1-.07.49Z"/><path class="cls-2" d="M54.08,72.22A1.91,1.91,0,0,1,56,74.1v2.52a1.91,1.91,0,0,1-1.89,1.89H25.65A1.81,1.81,0,0,1,24.32,78a1.85,1.85,0,0,1-.56-1.33V31.49a1.91,1.91,0,0,1,1.89-1.89h2.86a1.91,1.91,0,0,1,1.89,1.89V72.22Z"/><path class="cls-2" d="M60.23,56.85a18.23,18.23,0,0,1,1.54-6A16.92,16.92,0,0,1,65.05,46a14.34,14.34,0,0,1,4.86-3.28,16,16,0,0,1,6.32-1.19A17.68,17.68,0,0,1,83,42.7,13.84,13.84,0,0,1,88,46.23a15.78,15.78,0,0,1,3.22,5.59,22.78,22.78,0,0,1,1.12,7.33V61a1.91,1.91,0,0,1-1.89,1.89h-24v.42a9.86,9.86,0,0,0,2.9,7.3,9.75,9.75,0,0,0,6.88,2.55,10.48,10.48,0,0,0,8.87-3.5,4.09,4.09,0,0,1,1-.77,2.92,2.92,0,0,1,1.26-.21h2.09a2.08,2.08,0,0,1,1.4.56,1.38,1.38,0,0,1,.49,1.33,7.46,7.46,0,0,1-1.19,2.76,10.61,10.61,0,0,1-2.83,2.8,16.89,16.89,0,0,1-4.61,2.16,21.53,21.53,0,0,1-6.46.87A15.45,15.45,0,0,1,69.94,78a15.14,15.14,0,0,1-4.86-3.35,16.66,16.66,0,0,1-3.31-5,19.61,19.61,0,0,1-1.54-6.32A30,30,0,0,1,60.23,56.85Zm6.22.21H86.08v-.21A9,9,0,0,0,83.39,50a10,10,0,0,0-7.16-2.55,10.56,10.56,0,0,0-3.77.66A9.34,9.34,0,0,0,69.38,50a8.72,8.72,0,0,0-2.09,3,10,10,0,0,0-.84,3.84Z"/><path class="cls-2" d="M98.23,69.35a10.32,10.32,0,0,1,1.12-4.89,10.81,10.81,0,0,1,3.08-3.56A16.74,16.74,0,0,1,107,58.52a34,34,0,0,1,5.56-1.39l9.85-1.61v-.91a6.29,6.29,0,0,0-2.34-5.34,9.35,9.35,0,0,0-5.84-1.78,8,8,0,0,0-4.64,1.11,11.52,11.52,0,0,0-2.69,2.66A2.38,2.38,0,0,1,106,52a3.46,3.46,0,0,1-1.33.21h-2.09a2,2,0,0,1-1.37-.56,1.56,1.56,0,0,1-.52-1.33,6.73,6.73,0,0,1,1.22-3.14,10.74,10.74,0,0,1,2.94-2.87,17.2,17.2,0,0,1,4.26-2.06,16.26,16.26,0,0,1,5.13-.8,18.05,18.05,0,0,1,5.84.91A12.87,12.87,0,0,1,124.68,45a12.1,12.1,0,0,1,3,4.33,15.35,15.35,0,0,1,1.08,5.94V76.62a1.89,1.89,0,0,1-1.88,1.89h-2.59a1.91,1.91,0,0,1-1.88-1.89V73.75a6.48,6.48,0,0,1-2,2.35,13.48,13.48,0,0,1-3,1.71,18.68,18.68,0,0,1-3.56,1,18.2,18.2,0,0,1-3.46.35,15.5,15.5,0,0,1-5-.76,12.08,12.08,0,0,1-3.85-2.07,9,9,0,0,1-2.44-3.1A8.86,8.86,0,0,1,98.23,69.35Zm12.86,3.85a13.35,13.35,0,0,0,4.61-.77,10.91,10.91,0,0,0,3.6-2.13,9.13,9.13,0,0,0,2.3-3.25,10.54,10.54,0,0,0,.81-4.19V61.11l-8.25,1.33a19.82,19.82,0,0,0-7,2.23,4.54,4.54,0,0,0-2.59,4,3.71,3.71,0,0,0,.35,1.54,4.64,4.64,0,0,0,1.12,1.47,5.67,5.67,0,0,0,2,1.12A9.44,9.44,0,0,0,111.09,73.2Z"/><path class="cls-2" d="M153.08,41.48A13.73,13.73,0,0,1,160,43a13,13,0,0,1,3.91,3.25V30.79a1.91,1.91,0,0,1,1.89-1.89h2.59a1.91,1.91,0,0,1,1.88,1.89V76.62a1.91,1.91,0,0,1-1.88,1.89h-2.59a1.91,1.91,0,0,1-1.89-1.89V74.45a12,12,0,0,1-4,3.32,14,14,0,0,1-6.84,1.43A16.06,16.06,0,0,1,147,78.05,14.17,14.17,0,0,1,142,74.73a16.27,16.27,0,0,1-3.36-5.24,21.42,21.42,0,0,1-1.46-6.91c-.05-.7-.07-1.46-.07-2.27s0-1.58.07-2.27a21.42,21.42,0,0,1,1.46-6.92A16,16,0,0,1,142,45.91,14.49,14.49,0,0,1,147,42.63,16.06,16.06,0,0,1,153.08,41.48ZM163.9,63.35c0-.7.07-1.62.07-2.76s0-2.07-.07-2.76q-.21-5-3-7.65a9.83,9.83,0,0,0-7.17-2.69,9.28,9.28,0,0,0-7.26,2.93,12.54,12.54,0,0,0-2.94,8c0,1.31,0,2.61,0,3.92a12.52,12.52,0,0,0,2.94,8,9.29,9.29,0,0,0,7.26,2.94,9.93,9.93,0,0,0,7.13-2.66A10.15,10.15,0,0,0,163.9,63.35Z"/><polygon class="cls-3" points="187.21 81.44 243.1 81.44 215.16 26.85 187.21 81.44"/></svg>