<?xml version="1.0" encoding="UTF-8"?>
<svg id="Layer_2" data-name="Layer 2" xmlns="http://www.w3.org/2000/svg" viewBox="0 0 1291.09 516.25">
  <defs>
    <style>
      .cls-1 {
        fill: #ee1921;
      }

      .cls-1, .cls-2 {
        stroke-width: 0px;
      }

      .cls-2 {
        fill: #fff;
      }
    </style>
  </defs>
  <g id="Layer_1-2" data-name="Layer 1">
    <g>
      <g>
        <g>
          <path class="cls-2" d="M1110.76,288.97c.47-57.79,33.81-92.13,89.33-92,56.88.14,91.77,36.72,90.98,95.42-.77,57.57-36.54,93.36-92.29,92.34-56.26-1.04-88.5-36.12-88.02-95.76ZM1158.34,289.86c-.36,37.64,14.07,56.59,42.77,56.2,24.7-.34,38.12-14.94,41.19-44.82,3.7-36.01-7.5-59.36-30.93-64.46-1.39-.3-2.82-.42-4.24-.59-32.02-3.78-48.42,14.26-48.8,53.67Z"/>
          <path class="cls-2" d="M935.02,292.21c-.4,57.88-35.2,92.93-91.75,92.44-55.42-.49-89.48-37.15-88.73-95.51.75-58.08,35.23-92.67,91.85-92.16,55.76.5,89.04,36.26,88.63,95.23ZM887.36,287.85c.61-9.68-1.1-20.91-6.2-31.27-12.52-25.42-51.71-28.98-68.57-6.41-13.94,18.65-13.82,62.23,0,81.16,5.33,7.3,12.33,11.31,21.07,13.22,34,7.42,53.78-12.7,53.71-56.69Z"/>
          <path class="cls-2" d="M522.35,342.19c7.24,8.07,13.37,4.74,19.01,3.65.75,11.27,2.25,22.2,2.41,30.99-28.67,11.74-47.34,6.56-64.6-20.25-13.07,21.12-32.06,29.81-55.94,28.23-29.54-1.95-48.74-17.66-52.58-43.9-4.37-29.89,7.08-48.13,36.21-59.66,17.93-7.1,38.03-5.52,55.76-13.42,4.12-1.84,9.29-4.87,11.38-9.09s1.87-10.44-.16-14.71c-2.47-5.19-7.67-8.3-13.11-9.61-18.31-4.39-36.34,2.23-51.31,12.59-2.94,2.03-5.7,4.26-8.48,6.49-.43.34-4.98,4.28-5.39,3.96-9.55-7.34-13.94-17.94-20.4-26.78,25.09-32.76,86.69-45.31,120.96-24.84,19.4,11.59,25,30.09,25.11,51.03.15,28.28-6.4,76.48,1.12,85.31ZM475.68,293.5c-15.66,4.05-29.39,7.46-43.05,11.17-11.15,3.02-16.66,11-16.79,21.99-.11,8.89,3.16,16.67,11.96,21.09,15.95,8.01,37.89.06,45.09-17.08,4.29-10.2,3.28-22.1,2.8-37.17Z"/>
          <path class="cls-2" d="M698.98,314.28c11.67,6.42,21.59,11.89,31.26,17.22-8.3,31.67-37.19,55.69-81.12,52.91-47.96-3.04-78.98-33.54-83.06-81.68-4.48-52.86,19.32-91.56,63.3-102.95,44.24-11.46,74.17,1.5,99,39-9.88,7.11-20.07,14.44-30.05,21.62-7.97-7.53-13.75-15.13-21.36-19.77-22.22-13.54-51.23-2.57-59.7,22.09-5.19,15.11-5.25,30.66-2.29,46.35,3.43,18.17,11.46,32.21,31.44,35.72,20.52,3.6,36.1-3.04,46.93-21.38,1.39-2.36,2.72-4.9,5.64-9.13Z"/>
          <path class="cls-2" d="M985.2,235.9h-27.29c-1.92-12.36-1.89-23.3-.05-33.65,8.14-5.31,19.74-.94,27.64-3.48,3.07-9.41.67-21.7,1.59-33.8,13.29-3.64,27.05-6.51,43.37-6.4v40.23h50.58c2.55,13.4,2.26,24.46.24,37.48h-50.28c0,30.18-1.22,58.52.4,86.7,1.24,21.59,13.49,25.5,44.34,16.65,6.17,2.66,5.59,9.3,7.81,14.2,2.33,5.14,3.6,10.76,6.05,18.39-23.2,15.34-48.03,16.72-73.1,7.14-22.88-8.74-30.87-28.52-31.2-51.44-.42-29.77-.1-59.56-.1-92.03Z"/>
        </g>
        <g>
          <polygon class="cls-1" points="0 0 152.69 0 98.35 71.49 68.3 71.49 68.3 121.57 0 121.57 0 0"/>
          <polygon class="cls-1" points="242.08 260.38 303.89 260.38 303.89 384.62 143.25 384.62 197.01 314.8 241.41 314.8 242.08 260.38"/>
          <polygon class="cls-2" points="244.08 0 303.89 0 303.89 52.71 49.52 384.62 0 384.62 0 325.4 244.08 0"/>
        </g>
      </g>
      <g>
        <path class="cls-2" d="M151.1,499.41v.82c0,3.96,0,16.03-25.28,16.03h-1.99c-16.68,0-25.57-5.43-25.7-15.73h13.52c.87,4.87,5.2,7.34,12.86,7.34h.48c8.98,0,12.99-2.18,12.99-7.08,0-4.19-3.3-6-11.38-6.27l-6.79-.21c-13.83-.39-21.14-5.2-21.14-13.9v-.62c0-6.57,2.78-14.1,24.39-14.1h2.33c21.84,0,24.61,7.77,24.67,13.74h-13.37c-.68-2.63-3-5.62-12.26-5.62h-.69c-7.3,0-12.16.93-12.16,5.5,0,3.78,3.24,5.52,10.83,5.85l7.06.27c19,.73,21.62,7.14,21.62,13.98Z"/>
        <path class="cls-2" d="M194.07,465.48h-3.02c-27.54,0-29.68,18.51-29.68,24.19v2.06c0,11.83,7.8,24.46,29.68,24.46h3.02c21.88,0,29.68-12.63,29.68-24.46v-2.06c0-5.68-2.14-24.19-29.68-24.19ZM211.03,491.18c0,4.58-1.79,15.24-18.47,15.24s-18.47-11.66-18.47-15.24v-.96c0-4.52,1.79-15.04,18.47-15.04s18.47,9.43,18.47,15.04v.96Z"/>
        <polygon class="cls-2" points="248.17 475.65 248.17 486.73 279.65 486.73 279.65 496.43 248.17 496.43 248.17 515.36 236.07 515.36 236.07 466.29 280.61 466.29 280.61 475.65 248.17 475.65"/>
        <polygon class="cls-2" points="342 466.29 342 475.99 322.24 475.99 322.24 515.36 310.15 515.36 310.15 475.99 290.4 475.99 290.4 466.29 342 466.29"/>
        <polygon class="cls-2" points="435.45 466.29 419.16 515.36 403.73 515.36 392.16 477.23 380.6 515.36 365.63 515.36 348.75 466.29 361.81 466.29 373.8 505.44 385.22 466.29 400.2 466.29 411.69 505.58 423.61 466.29 435.45 466.29"/>
        <path class="cls-2" d="M476.65,466.29h-17.66l-21.76,49.07h12.04l4.12-9.46h28.85l4.19,9.46h12.98l-22.75-49.07ZM457.14,497.37l10.46-24.2,10.78,24.2h-21.24Z"/>
        <path class="cls-2" d="M563.34,510.31v-5.28c0-6.59-3.48-10.72-10.35-12.29l-4.22-.96,4.22-.95c6.27-1.41,10-5.59,10-11.18v-.69c0-5.43-2.14-12.67-20.63-12.67h-33.38v49.07h12.16v-17.35h19.37c7.37,0,10.51,3.17,10.51,10.58v4.19c0,1.35.1,2.15.2,2.58h12.59c-.28-.93-.49-2.35-.49-5.05ZM541.83,488.38h-20.66v-12.8h20.66c6.88,0,8.33,3.41,8.33,6.27v.14c0,2.91-1.44,6.39-8.33,6.39Z"/>
        <polygon class="cls-2" points="621.44 506.07 621.44 515.36 576.29 515.36 576.29 466.29 621.03 466.29 621.03 475.45 588.25 475.45 588.25 485.7 620 485.7 620 495.27 588.25 495.27 588.25 506.07 621.44 506.07"/>
        <path class="cls-2" d="M705.47,499.41v.82c0,3.96,0,16.03-25.28,16.03h-1.99c-16.69,0-25.57-5.43-25.7-15.73h13.52c.87,4.87,5.2,7.34,12.86,7.34h.48c8.97,0,12.99-2.18,12.99-7.08,0-4.19-3.3-6-11.38-6.27l-6.8-.21c-13.82-.39-21.13-5.2-21.13-13.9v-.62c0-6.57,2.77-14.1,24.39-14.1h2.33c21.83,0,24.6,7.77,24.67,13.74h-13.37c-.68-2.63-3-5.62-12.26-5.62h-.69c-7.3,0-12.16.93-12.16,5.5,0,3.78,3.24,5.52,10.82,5.85l7.07.27c19,.73,21.62,7.14,21.62,13.98Z"/>
        <path class="cls-2" d="M748.43,465.48h-3.02c-27.54,0-29.68,18.51-29.68,24.19v2.06c0,11.83,7.8,24.46,29.68,24.46h3.02c21.88,0,29.68-12.63,29.68-24.46v-2.06c0-5.68-2.15-24.19-29.68-24.19ZM765.39,491.18c0,4.58-1.8,15.24-18.47,15.24s-18.47-11.66-18.47-15.24v-.96c0-4.52,1.79-15.04,18.47-15.04s18.47,9.43,18.47,15.04v.96Z"/>
        <polygon class="cls-2" points="833.81 505.33 833.81 515.36 790.43 515.36 790.43 466.29 802.6 466.29 802.6 505.33 833.81 505.33"/>
        <path class="cls-2" d="M898.01,466.29v24.95c0,11.35-4.64,24.87-26.73,24.87h-1.99c-18.12,0-26.93-8.13-26.93-24.87v-24.95h12.16v24.61c0,10.07,5.25,15.17,15.59,15.17h.34c15.45,0,15.45-11.42,15.45-15.17v-24.61h12.1Z"/>
        <polygon class="cls-2" points="960.7 466.29 960.7 475.99 940.95 475.99 940.95 515.36 928.85 515.36 928.85 475.99 909.1 475.99 909.1 466.29 960.7 466.29"/>
        <rect class="cls-2" x="972.13" y="466.29" width="12.16" height="49.07"/>
        <path class="cls-2" d="M1029.31,465.48h-3.01c-27.54,0-29.68,18.51-29.68,24.19v2.06c0,11.83,7.8,24.46,29.68,24.46h3.01c21.88,0,29.68-12.63,29.68-24.46v-2.06c0-5.68-2.14-24.19-29.68-24.19ZM1046.28,491.18c0,4.58-1.8,15.24-18.48,15.24s-18.47-11.66-18.47-15.24v-.96c0-4.52,1.8-15.04,18.47-15.04s18.48,9.43,18.48,15.04v.96Z"/>
        <polygon class="cls-2" points="1127.45 466.29 1127.45 515.36 1115 515.36 1083.15 480.78 1083.15 515.36 1071.32 515.36 1071.32 466.29 1084.44 466.29 1115.69 500.71 1115.69 466.29 1127.45 466.29"/>
        <path class="cls-2" d="M1192.95,499.41v.82c0,3.96,0,16.03-25.28,16.03h-1.99c-16.69,0-25.57-5.43-25.7-15.73h13.52c.87,4.87,5.2,7.34,12.86,7.34h.48c8.97,0,12.99-2.18,12.99-7.08,0-4.19-3.3-6-11.38-6.27l-6.8-.21c-13.82-.39-21.13-5.2-21.13-13.9v-.62c0-6.57,2.77-14.1,24.39-14.1h2.33c21.83,0,24.6,7.77,24.67,13.74h-13.37c-.68-2.63-3-5.62-12.26-5.62h-.69c-7.3,0-12.16.93-12.16,5.5,0,3.78,3.24,5.52,10.82,5.85l7.07.27c19,.73,21.62,7.14,21.62,13.98Z"/>
      </g>
    </g>
  </g>
</svg>