<svg id="Layer_1" data-name="Layer 1" xmlns="http://www.w3.org/2000/svg" viewBox="0 0 343.91 95.74"><defs><style>.cls-1{fill:#231f20;fill-rule:evenodd;}</style></defs><title>SVG conversion</title><path class="cls-1" d="M74.25,47.61h9.92l-5-12.14Zm227.48,4.52c2.08,0,4.75-.65,4.75-3.19,0-2-1.92-2.77-3.61-3.09l-4.76-1.05c-4.4-1-7.92-2.89-7.92-7.88,0-6.13,5.39-8.8,10.9-8.8,5.77,0,10.57,2.31,11.73,8.33h-6c-.76-2.59-2.56-3.65-5.22-3.65-2.25,0-4.78.9-4.78,3.52,0,2.25,2,2.94,3.84,3.34l4,.94c4.31.93,8.28,2.57,8.28,7.62,0,6.35-5.87,8.76-11.42,8.76-6.11,0-11.25-2.54-12.41-8.93h6c1,3,3.65,4.08,6.63,4.08ZM186.36,45.55H173.24V56.38h-6V28.76h6v11.6h13.12V28.76h5.95V56.38h-5.95ZM147.65,33.9V56.38h-6V33.9h-9.27V28.76h24.45V33.9Zm-34.09,0V56.38h-6V33.9H98.33V28.76h24.46V33.9ZM86.16,52.46H72.28l-1.6,3.92H64.39L76.21,28.59h6L94,56.38H87.76l-1.6-3.92Zm119.59-23.7h21.89v5H211.69v5.78h14.07v4.85H211.69v7h15.95v5H205.75Zm39.18,0L251,47.57l6.48-18.81h5L269,47.55,275,28.76h6.29l-9,27.79h-6l-6.32-19-6.32,19h-6l-9-27.79Zm-197,11.61L40.42,51.83H37.15L29.63,40.28l.05,16.1H23.73V28.76H28.1L38.78,44.7,49.42,28.76h4.41V56.38H47.88v-16ZM309.64,62.64c1.63,0,3.07.75,3.29,2.47l0,.15h-1.09l0-.11a1.9,1.9,0,0,0-2.14-1.52c-.89,0-1.91.37-1.91,1.4,0,.84.86,1.13,1.56,1.25l1.22.24c1.24.24,2.36.83,2.36,2.22,0,1.75-1.54,2.57-3.14,2.57-1.88,0-3.29-.94-3.5-2.86l0-.14h1.09v.1a2.2,2.2,0,0,0,2.45,1.89c.93,0,2-.39,2-1.46,0-.8-.73-1.13-1.43-1.25l-1.4-.27c-1.23-.23-2.35-.86-2.35-2.24,0-1.66,1.49-2.44,3-2.44Zm-11.55,1.21v2.63h4.3v1h-4.3v2.59h4.78v1H297V62.82h5.89v1Zm-8,6.39a2.88,2.88,0,0,0,2.38-1.1l.07-.09.94.55-.08.11a4,4,0,0,1-3.31,1.59,4.32,4.32,0,1,1,0-8.64,4,4,0,0,1,3.31,1.58l.08.11-.94.56-.07-.1a2.9,2.9,0,0,0-2.38-1.09,3.26,3.26,0,0,0,0,6.52Zm-9.56.89h1.1V62.82h-1.1Zm-7.87-1.5,3.13-6.81H277l-3.85,8.37h-.95l-3.86-8.37h1.21l3.12,6.81Zm-10.55-1.42h-1.83v2.92h-1.1V62.82h3.14c1.69,0,3.22.88,3.22,2.7a2.6,2.6,0,0,1-2.13,2.57l2.64,3h-1.4Zm-11.82-4.36v2.63h4.3v1h-4.3v2.59h4.78v1h-5.88V62.82h5.88v1Zm-8.45-1.21c1.62,0,3.06.75,3.28,2.47l0,.15h-1.08l0-.11a1.9,1.9,0,0,0-2.13-1.52c-.9,0-1.91.37-1.91,1.4,0,.84.85,1.13,1.55,1.25l1.23.24c1.23.24,2.36.83,2.36,2.22,0,1.75-1.55,2.57-3.15,2.57-1.87,0-3.29-.94-3.5-2.86l0-.14h1.09l0,.1A2.2,2.2,0,0,0,242,70.3c.93,0,2-.39,2-1.46,0-.8-.73-1.13-1.42-1.25l-1.41-.27c-1.23-.23-2.34-.86-2.34-2.24,0-1.66,1.48-2.44,3-2.44Zm-14.05,1.21v7.28h-1.11V63.85h-3v-1h7.13v1Zm-13.71,1v6.3H213V62.82h.9L219,69.19V62.82h1.11v8.31h-.92Zm-10-1v2.63h4.3v1h-4.3v2.59h4.78v1H203V62.82h5.89v1Zm-6.7,1.41-2.58,4.28h-.72l-2.61-4.31,0,5.9H190.4V62.82h.86l3.19,5.33,3.19-5.33h.85v8.31h-1.11Zm-13.58-1.41v7.28h-1.1V63.85h-3v-1h7.14v1Zm-10.3-1.21c1.62,0,3.07.75,3.29,2.47l0,.15h-1.09l0-.11a1.9,1.9,0,0,0-2.14-1.52c-.89,0-1.91.37-1.91,1.4,0,.84.86,1.13,1.56,1.25l1.22.24c1.24.24,2.36.83,2.36,2.22,0,1.75-1.54,2.57-3.14,2.57-1.88,0-3.29-.94-3.5-2.86l0-.14h1.09l0,.1a2.19,2.19,0,0,0,2.44,1.89c.93,0,2-.39,2-1.46,0-.8-.72-1.13-1.42-1.25l-1.4-.27c-1.23-.23-2.35-.86-2.35-2.24,0-1.66,1.49-2.44,3-2.44ZM162,63.85v2.63h4.3v1H162v2.59h4.78v1h-5.89V62.82h5.88v1Zm-9,5.78,3.12-6.81h1.21l-3.85,8.37h-1l-3.86-8.37h1.22L153,69.63Zm-13.94-4.8v6.3H138V62.82h.89L144,69.19V62.82h1.1v8.31h-.92Zm-6.69,6.3h1.11V62.82h-1.11Zm-13.31-7.28v2.63h4.3v1h-4.3v2.59h4.78v1H118V62.82h5.88v1Zm-7.69,0v7.28h-1.1V63.85h-3v-1h7.14v1Zm-19.18,0v7.28h-1.1V63.85h-3v-1H95.2v1Zm-10.3-1.21c1.62,0,3.07.75,3.29,2.47l0,.15H84.1l0-.11a1.9,1.9,0,0,0-2.14-1.52C81.05,63.63,80,64,80,65c0,.84.86,1.13,1.56,1.25l1.22.24c1.24.24,2.36.83,2.36,2.22,0,1.75-1.54,2.57-3.14,2.57-1.88,0-3.29-.94-3.51-2.86v-.14H79.6l0,.1a2.19,2.19,0,0,0,2.44,1.89c.93,0,2-.39,2-1.46,0-.8-.73-1.13-1.43-1.25l-1.4-.27c-1.23-.23-2.35-.86-2.35-2.24,0-1.66,1.49-2.44,3-2.44ZM70.33,63.85v2.63h4.3v1h-4.3v2.59h4.78v1H69.22V62.82h5.89v1ZM56.56,70.12h4.51v1H55.45V62.82h1.11v7.3ZM49.9,69.5H45.17l-.73,1.63H43.25l3.8-8.37h1l3.8,8.37H50.63ZM35.21,63.85v2.63h4.3v1h-4.3v2.59H40v1H34.11V62.82H40v1Zm-8.55,4.36H24.84v2.92H23.73V62.82h3.15c1.68,0,3.21.88,3.21,2.7A2.6,2.6,0,0,1,28,68.09l2.64,3H29.2l-2.54-2.92Zm76.86,1.29H98.8l-.73,1.63H96.88l3.8-8.37h1l3.8,8.37h-1.19l-.73-1.63Zm156.76-2.32h2c1.05,0,2.13-.48,2.13-1.66s-1.07-1.67-2.13-1.67h-2ZM45.63,68.47h3.81l-1.91-4.26ZM24.84,67.18h2c1,0,2.14-.48,2.14-1.66s-1.08-1.67-2.14-1.67h-2Zm74.41,1.3h3.81l-1.91-4.27Zm223-39.35L322,26.31c0-.37,0-.83,0-1.34h-.05c-.13.43-.27,1-.41,1.43l-.87,2.66h-1l-.87-2.73c-.09-.37-.23-.93-.33-1.36h-.06c0,.44,0,.9,0,1.34l-.18,2.82h-.92l.35-4.79h1.44l.83,2.34c.11.37.2.73.32,1.22h0c.12-.44.23-.85.33-1.2l.84-2.36h1.38l.37,4.79ZM317,24.34v.79h-1.54v4h-1v-4H313v-.79h4Z"/></svg>