<svg id="Layer_1" data-name="Layer 1" xmlns="http://www.w3.org/2000/svg" viewBox="0 0 288 98.81"><defs><style>.cls-1{fill:#09a651;}</style></defs><title>SVG conversion</title><path class="cls-1" d="M29,17.82a29.34,29.34,0,0,1,4.22-2.45,37.6,37.6,0,0,1,11.23-3.49,38.4,38.4,0,0,1,10.6-.06A38.3,38.3,0,0,1,87.56,42a36.82,36.82,0,0,1,.67,11.18,37.87,37.87,0,0,1-8,20.16c-.56.72-1.19,1.37-1.75,2.09a.86.86,0,0,1-.9.36l-4.14-.56c-1.93-.27-3.86-.57-5.79-.81-.45-.06-.45-.24-.4-.59.32-2.25.63-4.51.95-6.76q.38-2.7.76-5.38a19.47,19.47,0,0,0,0-6.19A1.84,1.84,0,0,1,69.23,54a20,20,0,0,0,3.34-9.62,20.76,20.76,0,0,0-7.28-18.09,20,20,0,0,0-10.88-4.91c-3.84-.51-7.67-1.09-11.51-1.63-2.87-.4-5.75-.76-8.63-1.16C32.56,18.34,30.84,18.08,29,17.82Z"/><path class="cls-1" d="M68.82,83.09a31.28,31.28,0,0,1-4.72,2.27,38.32,38.32,0,0,1-38.52-6.22A37.65,37.65,0,0,1,12.35,56.42a35.81,35.81,0,0,1-.46-10,38.44,38.44,0,0,1,8.39-20.73,1,1,0,0,1,1.06-.41c3.45.52,6.9,1,10.35,1.43.33,0,.38.15.34.44-.51,3.45-1,6.9-1.48,10.35a31.2,31.2,0,0,0-.44,6.18,8.2,8.2,0,0,0,.18,1.8A2,2,0,0,1,30,47.22a20.1,20.1,0,0,0-3.23,9.15A20.72,20.72,0,0,0,31.27,72,20.07,20.07,0,0,0,43.65,79.5c3,.55,6,.86,9,1.29L61.23,82l6.48.88C68,82.93,68.37,83,68.82,83.09Z"/><path class="cls-1" d="M35.38,56.41A21.22,21.22,0,0,0,47,63.23a20.79,20.79,0,0,0,13.48-1.55c-.2,1.49-.38,2.86-.58,4.24-.25,1.81-.51,3.63-.76,5.45A11.66,11.66,0,0,0,59,72.54c0,.47-.2.62-.65.55l-3.58-.49c-2.21-.3-4.41-.66-6.62-.9-3.22-.36-6.25-1.11-8.75-3.35a12.93,12.93,0,0,1-4.24-7.86,13.41,13.41,0,0,1,0-3.69A.41.41,0,0,1,35.38,56.41Z"/><path class="cls-1" d="M64,44.64c-7.23-7.26-15.56-9.16-25.18-5.36q.39-2.66.75-5.29c.26-1.82.54-3.63.73-5.45.06-.53.26-.63.7-.57l5.44.79c2.14.3,4.27.65,6.42.86A13,13,0,0,1,64,39.67a13.22,13.22,0,0,1,.13,4.65A1.08,1.08,0,0,1,64,44.64Z"/><path class="cls-1" d="M51.23,55.31A12.92,12.92,0,0,1,40.28,49c-.27-.44-.15-.62.22-.88a12.38,12.38,0,0,1,7.6-2.3A12.87,12.87,0,0,1,58.91,52c.3.47.3.74-.21,1.08A13.66,13.66,0,0,1,51.23,55.31Z"/><path d="M180.09,44V57.67h-4.84v-30h-3.13V23.47l.65,0c4.81,0,9.62-.05,14.43,0a10,10,0,0,1,7.59,3.09,9.06,9.06,0,0,1,2.29,5.05,11.17,11.17,0,0,1-.88,6.65,8,8,0,0,1-4.84,4.24,1.83,1.83,0,0,0-.24.15c1.44.95,1.85,2.53,2.58,3.9.94,1.79,1.88,3.58,2.71,5.42a2.51,2.51,0,0,0,2.65,1.6h.61v4.14c-1,0-2,0-3.09,0a6.49,6.49,0,0,1-1.32-.13,3.64,3.64,0,0,1-2.54-2.18l-4.47-8.83c-.07-.14-.15-.28-.21-.43A3.09,3.09,0,0,0,185,44Zm0-4.22c2.56,0,5,.09,7.49,0a4.45,4.45,0,0,0,3.32-1.83,7,7,0,0,0,1.26-5.13,5.27,5.27,0,0,0-5.58-5.19c-1.94,0-3.87,0-5.81,0h-.68Z"/><path d="M163.83,53.53v4.29c-1.57-.13-3.12-.16-4.64-.41-1-.16-1.45-1-1.78-1.91-.88-2.36-1.76-4.72-2.61-7.1a.75.75,0,0,0-.83-.6c-3.78,0-7.57,0-11.35,0a.8.8,0,0,0-.89.63q-1.18,3.3-2.4,6.59c-.42,1.17-1,2.31-2.34,2.51s-2.77.17-4.21.25V53.51c1.67.37,2.1-.74,2.55-2q5.05-13.76,10.15-27.47c.17-.45.35-.66.87-.64,1.26,0,2.52,0,3.78,0A.77.77,0,0,1,151,24c3.46,9.39,7,18.78,10.41,28.18C161.88,53.44,162.7,53.63,163.83,53.53Zm-10.54-9.82c-1.73-5-3.44-10-5-14.66-1.6,4.65-3.31,9.65-5,14.66Z"/><path d="M110.2,57.68h-4.78v-30h-3.15V23.44h.64c4.85,0,9.71-.05,14.56,0a10.39,10.39,0,0,1,8,3.43,9.48,9.48,0,0,1,2.28,4.69,11.75,11.75,0,0,1-1.58,9,9.11,9.11,0,0,1-6.83,4.21c-2.47.25-5,.14-7.47.18-.53,0-1.07,0-1.69,0Zm0-16.8H111c2.09,0,4.19,0,6.29-.1a5.49,5.49,0,0,0,5-3.28A8.28,8.28,0,0,0,123,33,5.6,5.6,0,0,0,118,27.78c-2.55-.2-5.12-.11-7.68-.15,0,0-.08,0-.14.08Z"/><path d="M218,27.61c-2.42,0-4.73,0-7,0a1,1,0,0,0-1,1.06c0,.69,0,1.39,0,2.12h-4.32V28.73c0-.87,0-1.73,0-2.6,0-1.86.77-2.6,2.63-2.69.19,0,.37,0,.56,0h23.11c.18,0,.37,0,.56,0,1.82.09,2.54.84,2.54,2.67q0,2.2,0,4.41a1.8,1.8,0,0,1,0,.27h-4.3c0-.72,0-1.43,0-2.15s-.29-1-.95-1c-2.29,0-4.58,0-7,0V57.67H218Z"/><path d="M270.86,23.44v4.08c-.05,0-.1.08-.13.07-1.6-.21-2.55.54-3.36,1.9-2.58,4.33-5.29,8.58-7.93,12.87a2.08,2.08,0,0,0-.28,1q0,6.72,0,13.44v.82h-4.77v-.83c0-4.39,0-8.77,0-13.16A3,3,0,0,0,253.9,42c-2.69-4.26-5.38-8.52-8-12.82A2.71,2.71,0,0,0,243,27.61a1.32,1.32,0,0,1-.28,0s0,0-.1-.06V23.35c1.4.1,2.79.13,4.16.33a3.69,3.69,0,0,1,2.45,2.13q3.68,6.24,7.33,12.49c0,.06.08.11.16.23.58-1,1.11-2.06,1.69-3.05,1.89-3.2,3.83-6.36,5.69-9.58a4.56,4.56,0,0,1,4.48-2.47C269.35,23.46,270.09,23.44,270.86,23.44Z"/><path d="M250.85,64.47v1.85s-.09.09-.12.09c-1.73,0-1.4.22-1.4,1.52,0,4.32,0,8.64,0,13.06-.66,0-1.31,0-1.94,0-.16,0-.34-.2-.45-.36q-4.17-6-8.31-12s-.1-.09-.08-.07V79.28c0,1.38-.35,1.71-1.74,1.71h-2.13V79.1c1.5-.21,1.5-.21,1.5-1.76V64.47c.69,0,1.31,0,1.93,0a.86.86,0,0,1,.5.39c2.83,4,5.64,8,8.51,12.1a13,13,0,0,1-.14-1.34q0-4.94,0-9.87a1.22,1.22,0,0,1,1.32-1.29C249.12,64.46,250,64.47,250.85,64.47Z"/><path d="M103.76,66.45h-1.5v-2c2,0,3.93,0,5.88,0a17.3,17.3,0,0,1,2.5.14,3.94,3.94,0,0,1,3.44,3.26,4.13,4.13,0,0,1-1.84,4.28,1,1,0,0,0-.13.11,3.93,3.93,0,0,1,2.59,3.2,4.34,4.34,0,0,1-3.7,5.34,51.19,51.19,0,0,1-6.2.16c-.68,0-1-.56-1-1.4V66.45Zm2.36,6.78c0,1.84,0,3.49,0,5.14,0,.5.25.66.69.66.79,0,1.59,0,2.38,0,1.94,0,3.37-.9,3.12-3.33a2.48,2.48,0,0,0-2-2.25C109,73.3,107.6,73.3,106.12,73.23Zm0-1.88c1.32,0,2.55.08,3.77,0a2.2,2.2,0,0,0,1.82-2.23,2.15,2.15,0,0,0-1.51-2.45c-1.33-.21-2.71-.19-4.08-.27Z"/><path d="M157.39,73.69c.7,1.35,1.44,2.69,2.07,4.07.38.82.81,1.41,1.84,1.26v1.87c-2,.5-2.86.09-3.72-1.65-.48-1-1-1.95-1.46-2.92-.18-.38-.38-.74-.58-1.11a1.44,1.44,0,0,0-1.37-.8c-.76,0-1.53,0-2.34,0v6.53h-2.38V66.48l-1.52-.07V64.47h7.38a4.54,4.54,0,0,1,4.45,2.85c.67,1.85.43,4.33-1.23,5.63C158.15,73.24,157.73,73.47,157.39,73.69Zm-5.55-1.24c1.06,0,2,0,3,0a2.62,2.62,0,0,0,2.8-2.38c.26-1.43-.17-3.36-2.44-3.58-1.1-.1-2.22,0-3.37,0Z"/><path d="M185.57,81h-1.95V79.37a3.18,3.18,0,0,0-.51.29,7.92,7.92,0,0,1-12.67-5.33,8.52,8.52,0,0,1,2.62-8,8.28,8.28,0,0,1,6.91-2,8.5,8.5,0,0,1,4.6,1.94l-1.22,1.57a25,25,0,0,0-3-1.19,5.87,5.87,0,0,0-7.55,5.14,6.25,6.25,0,0,0,2.73,6.48,6.33,6.33,0,0,0,7.65-.9c.31-.33.47-2,.13-2.22a5.11,5.11,0,0,0-1.35-.36V72.88c.91,0,1.8,0,2.67,0a1,1,0,0,1,.92,1.12C185.58,76.3,185.57,78.59,185.57,81Z"/><path d="M195,81V79.05c.94.17,1.13-.53,1.37-1.19,1.58-4.28,3.18-8.55,4.74-12.83a.69.69,0,0,1,.77-.57c1.92,0,1.92,0,2.59,1.8,1.45,3.93,2.91,7.85,4.33,11.78.24.65.53,1.07,1.28,1V81a7.43,7.43,0,0,1-1.95,0,2.08,2.08,0,0,1-1.11-1,31.84,31.84,0,0,1-1.21-3.17c-.13-.39-.28-.56-.73-.55q-2.52,0-5,0a.65.65,0,0,0-.73.54c-.33,1-.68,1.92-1,2.87-.42,1.13-.77,1.36-2,1.36Zm7.55-13.81c-.81,2.36-1.61,4.69-2.43,7.06H205C204.15,71.85,203.34,69.51,202.54,67.18Z"/><path d="M138.74,79v2c-.65,0-1.28,0-1.9,0s-1-.63-1.27-1.24c-.38-1-.73-2-1.14-3a.78.78,0,0,0-.55-.44c-1.87,0-3.73,0-5.67,0-.36,1-.72,1.93-1.07,2.89-.66,1.79-.78,1.88-2.66,1.87h-.78V79.05c.9.14,1.11-.52,1.34-1.16,1.58-4.28,3.17-8.54,4.73-12.82.16-.43.32-.62.82-.61,1.87,0,1.88,0,2.53,1.76q2.2,5.94,4.39,11.91C137.72,78.72,138,79.13,138.74,79Zm-7.51-11.83-2.43,7.06h4.87Z"/><path d="M270.31,68.53h-2.05a1.74,1.74,0,0,0-1.56-2.09,3.28,3.28,0,0,0-3.51.9,1.72,1.72,0,0,0,.11,2.46,18.11,18.11,0,0,0,2.46,1.53,28.18,28.18,0,0,1,3.44,1.94,4,4,0,0,1,1.38,4.57A4.46,4.46,0,0,1,267,81.11a7.19,7.19,0,0,1-7-2.26l1.38-1.67a6.12,6.12,0,0,0,3.47,1.94,3,3,0,0,0,3.07-1,2.19,2.19,0,0,0-.75-3.35c-.87-.56-1.85-.95-2.76-1.45A16.57,16.57,0,0,1,262,71.83a4.07,4.07,0,0,1,.62-6.88,6.5,6.5,0,0,1,6.34,0C270.38,65.71,270.53,67,270.31,68.53Z"/><path d="M220.86,66.42h-1.47v-1.9h5.38v1.9h-1.55V79h1.54v2H219.4V79.05h1.46Z"/></svg>