<svg id="Layer_1" data-name="Layer 1" xmlns="http://www.w3.org/2000/svg" viewBox="0 0 288 167.49"><defs><style>.cls-1{fill:#0eab8f;}.cls-2{fill:#f36e25;}</style></defs><title>SVG conversion</title><g id="_2" data-name="2"><path class="cls-1" d="M106,54.89c3.65-4.23,7.41-6.89,12.2-8,9.07-2,18,3.65,20.62,12.59a51.68,51.68,0,0,1,1.79,11.93c.42,9-.27,18,.48,27a19.29,19.29,0,0,0,2,7.41,5.52,5.52,0,0,0,3.68,3.11c1.42.32,3,.49,4-.57s-.31-1.95-.62-2.92c-2.8-8.83-1.75-17.64.4-26.35,2.81-11.43,8.35-21.33,17.55-28.93,3.28-2.71,7.06-4.54,11.39-4.42,5.46.16,9.39,3,12,7.72,3.42,6.16,3.33,12.74,2.33,19.43-2,13.6-9.25,24.2-19.16,33.26-.57.52-1.73.87-1.42,1.8s1.37.82,2.15,1c7.24,2.14,14.47,1.57,21.68-.18.77-.19,1.52-.3,1.06-1.63-5.07-14.63-1.64-28.34,4.81-41.63a45.54,45.54,0,0,1,11.65-14.83c10.94-9.33,23.86-5,26.38,9.11,2.17,12.13-1.27,23.25-7.89,33.45A64.49,64.49,0,0,1,222,106.05c-1.08,1-2.13,2-3.4,3.18,4.41,1.49,8.1.34,11.53-1.59,7.27-4.09,11.93-10.49,15-18.07,3.35-8.21,4.46-16.84,4.49-25.63.05-11.42,0-22.84,0-34.25A20.08,20.08,0,0,1,250,26c.93-4.83,3.89-7.23,8.48-7A7.91,7.91,0,0,1,266,26.85c.1,13.08.45,26.16-.22,39.24-.51,10.17-2,20.18-5.7,29.74-5.64,14.6-15.29,24.9-30.93,28.93-8.63,2.22-16.44.18-24-3.9a2.72,2.72,0,0,0-3.14-.14c-13.33,7.86-26.55,6.4-39.57-.75a2.89,2.89,0,0,0-3.7.21c-4.93,3.63-10.32,5.82-16.57,4.6-9.69-1.91-14-9.52-16.32-18.94a61.24,61.24,0,0,1-1.59-16c.12-5.11.14-10.23-.14-15.33-.21-4.08-.85-8.46-5.34-10a10.17,10.17,0,0,0-10.73,1.94,5.86,5.86,0,0,0-2.18,4.78c.12,7.42.17,14.84.1,22.25-.06,7.65-1.11,15.08-5.39,21.71-5.17,8-12.4,10.92-21.67,8.64-.89-.22-1.76-.51-2.62-.8a34.07,34.07,0,0,1-4.27-1.58.52.52,0,0,1-.14-.82c.93-1,3.28-3.1,4.35-5.39a24.14,24.14,0,0,0,2-5.63.49.49,0,0,1,.56-.35c1.23.23,3.07.71,4,.39,1.88-.68,2.87-2.29,3.75-4a28,28,0,0,0,3-13.27c0-20.49-.12-41-.18-61.49a41.52,41.52,0,0,1,.25-4.73c.48-4.43,3.48-7.38,7.59-7.56a8.65,8.65,0,0,1,8.46,6.8,20.19,20.19,0,0,1,.36,4C106,37.64,106,45.88,106,54.89Zm74.13,14.45c0-.75,0-1.5,0-2.25-.13-2.14-.55-4.3-2.68-5.27s-4,.54-5.54,1.92a19,19,0,0,0-4.24,5.81c-2.84,5.54-4.21,11.5-5.09,17.62A25.81,25.81,0,0,0,163,97.3c.46,1.84,1,1.92,2.42.82C174.75,90.8,179.12,80.93,180.13,69.34Zm29.52,21.87c0,1.24-.05,2.49,0,3.74,0,.65.32,1.29.41,2,.28,2.09,1,2.45,2.79,1.06,7.31-5.66,11.4-13.3,13.67-22,.92-3.55,1.49-7.18.51-10.85-.94-3.51-3.36-4.5-6.4-2.52a16.82,16.82,0,0,0-5.55,6.62A51.2,51.2,0,0,0,209.65,91.21Z"/><path class="cls-1" d="M48.84,46.28c7.19.06,14.41,3.1,20.57,8.62,2.5,2.22,3.74,5,2.73,8.52a7.3,7.3,0,0,1-11.47,4.17,36.78,36.78,0,0,0-7.25-4.35,15.19,15.19,0,0,0-10-.74c-4.77,1.36-6,6.12-2.55,9.7A19.54,19.54,0,0,0,47,76c5.27,2.46,10.7,4.58,15.72,7.57,5.71,3.4,10.54,7.58,12.39,14.33,2.54,9.25-1.92,19.24-11,24.6-10.8,6.4-24.13,5-34.54-3.77-2.81-2.35-5.68-4.66-7-8.25-1.29-3.36-.8-6.13,1.48-8.23a7,7,0,0,1,8.54-.78c2.81,1.61,5.47,3.49,8.2,5.24a27.87,27.87,0,0,0,6.58,3.49c4,1.24,7.78,0,9.42-3,1.78-3.3.78-6.91-2.8-9.57s-7.51-4.27-11.44-6.06A55,55,0,0,1,31.08,85c-6.72-5.27-10.43-12-8.85-20.65C23.76,56,29.4,50.92,37.15,48,40.54,46.75,44.09,46.36,48.84,46.28Z"/><circle class="cls-2" cx="174.78" cy="27.07" r="8.41"/><circle class="cls-2" cx="114.94" cy="124.75" r="8.41"/><circle class="cls-2" cx="114.94" cy="148.32" r="8.41"/><circle class="cls-2" cx="198.36" cy="27.07" r="8.41"/><circle class="cls-2" cx="222.09" cy="27.07" r="8.41"/></g></svg>