<svg id="Layer_1" data-name="Layer 1" xmlns="http://www.w3.org/2000/svg" viewBox="0 0 425.87 95.74"><defs><style>.cls-1{fill:#231f20;}</style></defs><title>SVG conversion</title><g id="_3" data-name="3"><path class="cls-1" d="M52.1,28.72H39V64.9h-8.9V28.72H16.86V20.54H52.1Z"/><path class="cls-1" d="M78.44,39.13A36.63,36.63,0,0,0,74.7,39q-7.59,0-8.16,9.13V48l-.06,17H58V31.17h8.15v6.67a12.18,12.18,0,0,1,4.08-5.24,10,10,0,0,1,6-1.9,10.26,10.26,0,0,1,2.18.17Z"/><path class="cls-1" d="M114.68,64.94h-7.74l-.1-5.79a10.09,10.09,0,0,1-4.58,4.74,15.71,15.71,0,0,1-7.13,1.52q-5.85,0-9.06-3t-3.21-8.87V31.17h8.66V51.48q0,3.57,1.56,5.24a6.33,6.33,0,0,0,4.85,1.67,7.88,7.88,0,0,0,5.85-2.14,9.67,9.67,0,0,0,2.43-6.35V31.17h8.47Z"/><path class="cls-1" d="M143.16,37.41h-8.94v28h-8.6V37.84h-5.16V29.78h5.16q0-6.71,3.24-9.84a12,12,0,0,1,8.72-3.14A22.14,22.14,0,0,1,145.24,18l-1.31,6.84a12.24,12.24,0,0,0-4.86-.93,4.93,4.93,0,0,0-3.92,1.39A6.7,6.7,0,0,0,134,29.71v.07h9.19m2.08,0H150q.06-6.63,3.42-9.8t9.28-3.18a26.09,26.09,0,0,1,4.76.43A12.67,12.67,0,0,1,171,18.37l-1.56,7.06a7.64,7.64,0,0,0-2.39-1.1,10.41,10.41,0,0,0-2.9-.4c-2.2,0-3.72.44-4.57,1.32s-1.28,2.37-1.28,4.46v.07H168.4v8.06h-9.84V65.41H150v-28h-4.73"/><path class="cls-1" d="M179.73,50.62a9.06,9.06,0,0,0,2.93,6.09,8.58,8.58,0,0,0,3.94,1.78c2.93.58,6.29.38,8.62-1.71.83-.75,1.35-1.75,2.11-2.58l5.29,4.66c.32.37-2.25,2.85-2.56,3.14-4.63,4.32-12.37,4.17-18.12,2.58a14.47,14.47,0,0,1-8-5.49,18.12,18.12,0,0,1-2.85-8.92C171,49.43,171,48.69,171,48q0-8.31,4.11-13t12.52-4.72q8.34,0,12.36,4.66T204,48v2.67ZM195.48,45q-.43-4.27-2.27-6.33a7,7,0,0,0-5.45-2.05q-7,0-8,8.38Z"/><path class="cls-1" d="M229.2,64.9l-5.73-8.82-1-1.57c-.27-.46-.49-.84-.66-1.16a34.62,34.62,0,0,1-1.68,3.08l-5.35,8.47H206l11.33-17.35L206.29,30.72h9.34L221.1,39a29.54,29.54,0,0,1,1.75,3.14c.58-1.23,1.1-2.23,1.56-3l5.23-8.36h8.77l-11,17.06L238.48,64.9Z"/><path class="cls-1" d="M275.42,78.41H267V60.64Q263.71,66,256.24,66q-7.16,0-11-4.78t-3.83-13.11q0-8.44,3.86-13.2t11.08-4.74a14.18,14.18,0,0,1,7.07,1.57,10,10,0,0,1,4.2,4.77l0-5.86h7.83Zm-8.53-30.22c0-3.62-.64-6.39-1.9-8.3S261.66,37,258.79,37a7.56,7.56,0,0,0-6.41,2.84q-2.17,2.84-2.18,8.33t2.21,8.19a7.64,7.64,0,0,0,6.38,2.81c2.78,0,4.83-.92,6.13-2.75S266.89,51.86,266.89,48.19Z"/><path class="cls-1" d="M314.74,64.9h-7.87l0-6.27a10.54,10.54,0,0,1-4.58,5.13,14.64,14.64,0,0,1-7.13,1.65q-5.85,0-9.06-3.26t-3.2-9.6V30.72h8.65V50.33c0,2.57.52,4.47,1.56,5.67A6.08,6.08,0,0,0,298,57.81a7.56,7.56,0,0,0,5.86-2.32q2.11-2.31,2.43-6.87V30.72h8.46Z"/><path class="cls-1" d="M332.86,30.72V64.9H324.4V30.72Z"/><path class="cls-1" d="M362,39.63a16.91,16.91,0,0,0-2.75-1.4,12.93,12.93,0,0,0-4.93-1,8.62,8.62,0,0,0-4.14.91,2.91,2.91,0,0,0-1.66,2.71,2.57,2.57,0,0,0,1.6,2.43,22.92,22.92,0,0,0,5,1.49A43.76,43.76,0,0,1,361,46.52a9.63,9.63,0,0,1,4,2.92,8.3,8.3,0,0,1,1.66,5.46c0,3.46-1.13,6.08-3.41,7.85s-5.47,2.66-9.6,2.66a22.08,22.08,0,0,1-13.58-4.15L344.39,56a28.59,28.59,0,0,0,3.26,1.81,14.59,14.59,0,0,0,5.53,1,8,8,0,0,0,4.31-1A3.16,3.16,0,0,0,359,55.07a2.74,2.74,0,0,0-1.64-2.62,21.74,21.74,0,0,0-5.13-1.52,39.83,39.83,0,0,1-5.83-1.64,9.08,9.08,0,0,1-3.91-2.92,8.73,8.73,0,0,1-1.64-5.6,8.56,8.56,0,0,1,3.69-7.48,15.57,15.57,0,0,1,9.1-2.57,22.81,22.81,0,0,1,12.74,3.68Z"/><path class="cls-1" d="M381.39,50.42a9.41,9.41,0,0,0,2.78,6.17,9.42,9.42,0,0,0,6.55,2.08A12.94,12.94,0,0,0,396,57.59a11.85,11.85,0,0,0,4.13-3.07l3.49,6.38a24.14,24.14,0,0,1-5.88,3.34,20.72,20.72,0,0,1-7.41,1.17q-8.87,0-13.05-4.57t-4.2-13.12q0-8.43,3.9-13.22t11.87-4.78q7.92,0,11.73,4.72t3.81,13.28v2.7Zm14.94-5.65q-.4-4.34-2.15-6.41A6.36,6.36,0,0,0,389,36.28q-6.67,0-7.56,8.49Z"/><circle class="cls-1" cx="328.37" cy="21.83" r="5.01"/></g></svg>